<?xml version="1.0" encoding="UTF-8"?>
<svg width="181px" height="55px" viewBox="0 0 181 55" version="1.1" xmlns="http://www.w3.org/2000/svg" xmlns:xlink="http://www.w3.org/1999/xlink">
    <!-- Generator: sketchtool 41.2 (35397) - http://www.bohemiancoding.com/sketch -->
    <title>567E060A-E860-45F4-9144-F6B91F3D4F7D</title>
    <desc>Created with sketchtool.</desc>
    <defs></defs>
    <g id="User-Login" stroke="none" stroke-width="1" fill="none" fill-rule="evenodd">
        <g id="Login-Screen" transform="translate(-386.000000, -137.000000)" fill="#FFFFFF">
            <g id="Page-1" transform="translate(386.000000, 137.000000)">
                <path d="M75.4856515,17.3625919 C75.3705074,17.1571905 75.1851412,17.0267687 74.9821832,17.0267687 L74.0655978,17.0267687 C73.8626398,17.0267687 73.6713049,17.1672886 73.5621778,17.3625675 L63.2520604,35.3752802 L63.2463093,35.388598 C63.2458985,35.389842 63.2427812,35.3988668 63.2379,35.4097455 C63.2308681,35.4254293 63.2191,35.4517234 63.2191,35.7850342 L63.2191,36.6436907 C63.2191,36.8624587 63.3951387,37.040444 63.6115805,37.040444 L64.4733365,37.040444 C64.6767537,37.040444 64.8677502,36.8868015 64.9727694,36.7026696 L74.5206887,20.0103459 L82.925625,34.7017069 C82.9444251,34.7510267 82.9437726,34.79459 82.9236677,34.8247624 C82.9029104,34.8558129 82.8614682,34.8729114 82.8069771,34.8729114 L68.840909,34.8729114 C68.6383134,34.8729114 68.4157821,35.0191876 68.3070175,35.2099053 L67.4907875,36.6369343 C67.448572,36.7389886 67.4536466,36.8418479 67.5047546,36.9192423 C67.5558868,36.99671 67.6481228,37.0411514 67.7578299,37.0411514 L85.3926076,37.0411514 C85.6090495,37.0411514 85.7850882,36.8631905 85.7850882,36.6444225 L85.7850882,35.7864733 C85.7850882,35.6001705 85.729993,35.3210089 85.6596742,35.1509265 L75.4856515,17.3625919 Z" id="Fill-1"></path>
                <path d="M156.059967,29.8975502 C155.727511,30.8322108 155.253548,31.6805253 154.649241,32.4215657 C154.046456,33.1584351 153.311951,33.7587848 152.463872,34.2059311 C151.622656,34.6488821 150.66371,34.8731382 149.61463,34.8731382 C148.596095,34.8731382 147.648192,34.6558337 146.798688,34.228225 C145.942272,33.797787 145.19392,33.2141698 144.575839,32.4940086 C143.955052,31.7710668 143.468596,30.9269477 143.130437,29.9867014 C142.789524,29.0464794 142.617714,28.0519131 142.617714,27.0350772 C142.617714,26.0670001 142.785367,25.1044599 143.117968,24.1711651 C143.449216,23.2379192 143.928665,22.3896047 144.541212,21.6485887 C145.149554,20.9116949 145.89375,20.3113452 146.751567,19.8641989 C147.601047,19.419882 148.564222,19.1956015 149.61463,19.1956015 C150.61381,19.1956015 151.54371,19.4115157 152.376566,19.8391487 C153.217733,20.2695624 153.957773,20.8545943 154.575853,21.5747554 C155.196616,22.2976729 155.687326,23.141792 156.035126,24.0834287 C156.382878,25.0250409 156.560391,26.016851 156.560391,27.0350772 C156.560391,28.0003737 156.391263,28.9642798 156.059967,29.8975502 M156.214161,20.2031442 C155.422072,19.2607758 154.452856,18.4880752 153.333482,17.9064337 C152.210628,17.3224507 150.955473,17.026337 149.602717,17.026337 C148.306604,17.026337 147.084119,17.3036448 145.969288,17.8505282 C144.860812,18.3934846 143.886932,19.1379642 143.07469,20.0633073 C142.265371,20.9871625 141.620975,22.0612454 141.159432,23.2556275 C140.696004,24.4543269 140.461004,25.7257132 140.461004,27.0344918 C140.461004,28.2860478 140.681747,29.5281398 141.117047,30.7262051 C141.554667,31.9266363 142.181544,33.0017192 142.980327,33.9215986 C143.779666,34.8436 144.748157,35.6019096 145.858904,36.1755506 C146.974001,36.7499233 148.224468,37.0411831 149.575484,37.0411831 C150.873023,37.0411831 152.095459,36.7638753 153.208889,36.2170163 C154.317486,35.6733281 155.291414,34.9336537 156.103802,34.0184087 C156.911357,33.1053346 157.556212,32.035252 158.020292,30.8380404 C158.482656,29.6396337 158.717125,28.3599055 158.717125,27.0344918 C158.717125,25.8175231 158.496454,24.5975298 158.061347,23.4084407 C157.625757,22.2216931 157.004221,21.1432197 156.214161,20.2031442" id="Fill-3"></path>
                <path d="M101.480023,34.8729187 L90.552115,34.8710649 C90.426846,34.8710649 90.32492,34.7679374 90.32492,34.6411988 L90.32492,17.4236757 C90.32492,17.2049077 90.1488571,17.0269224 89.9324636,17.0269224 L88.570719,17.0269224 C88.3543013,17.0269224 88.1782143,17.2049077 88.1782143,17.4236757 L88.1782143,36.6433078 C88.1782143,36.8620514 88.3543013,37.0400123 88.570719,37.0400123 L100.298401,37.0400123 C100.499039,37.0400123 100.738413,36.9067855 100.845414,36.7330688 L101.693324,35.26494 C101.754532,35.1672762 101.764899,35.0707099 101.722563,34.9931447 C101.680299,34.9156039 101.594152,34.8729187 101.480023,34.8729187" id="Fill-5"></path>
                <path d="M116.107879,32.7826756 C115.907844,33.2605553 115.673183,33.6349903 115.390482,33.9274209 C114.737048,34.6032869 113.484938,34.8729114 113.014116,34.8729114 L106.107551,34.8729114 C105.982306,34.8729114 105.880404,34.7697838 105.880404,34.6430452 L105.880404,19.4254847 C105.880404,19.2987461 105.982306,19.1955942 106.107551,19.1955942 L112.612477,19.1955942 C113.559486,19.1955942 114.215722,19.4545351 114.740165,20.0351277 C114.988746,20.310289 115.193613,20.7102376 115.366317,21.1738239 C115.502049,21.54621 115.562606,21.9490368 115.562606,22.4799682 C115.562606,22.9934595 115.492311,23.439557 115.353824,23.8056989 C115.194145,24.2263316 114.97113,24.5997665 114.690918,24.9156374 C114.411914,25.2305326 114.164928,25.3642716 113.785037,25.5563552 C113.413943,25.7439508 112.995437,25.8391023 112.541143,25.8391023 L109.887369,25.8391023 C109.684387,25.8391023 109.496991,25.9865738 109.386559,26.1782915 L108.553558,27.6438591 C108.513131,27.746011 108.519752,27.8489923 108.57173,27.9264111 C108.623708,28.0039031 108.716162,28.0483202 108.825434,28.0483202 L113.219297,28.0483202 C113.742266,28.0483202 114.811475,28.3038951 115.454131,28.9897129 C115.729486,29.2835094 115.950447,29.659164 116.129651,30.1381413 C116.269153,30.5110397 116.331376,30.9229158 116.331376,31.4735311 C116.331376,32.0015843 116.260333,32.4175825 116.107879,32.7826756 M115.669389,26.7970081 C115.623863,26.7735434 115.595494,26.7444687 115.59356,26.7192478 C115.591627,26.693905 115.615429,26.6605129 115.657451,26.6298283 C116.169281,26.2538566 116.600014,25.7751964 116.937713,25.2070191 C117.454689,24.3351911 117.716851,23.3647968 117.716851,22.3227645 C117.716851,21.6884372 117.605718,21.0476463 117.386545,20.4181486 C117.167276,19.7911632 116.851712,19.2224493 116.448695,18.7278614 C116.044471,18.2308587 115.545835,17.8198851 114.966418,17.5062339 C114.374822,17.1878751 113.709306,17.026476 112.98826,17.026476 L104.126783,17.026476 C103.910365,17.026476 103.734302,17.2044857 103.734302,17.4232294 L103.734302,36.6443249 C103.734302,36.8630685 103.910365,37.0410294 104.126783,37.0410294 L113.014116,37.0410294 C113.754832,37.0410294 114.470706,36.9038756 115.141998,36.6332511 C115.81121,36.3613583 116.402589,35.978313 116.899654,35.4948233 C117.399111,35.0104798 117.797584,34.4360827 118.084007,33.787584 C118.373353,33.132963 118.520056,32.4183387 118.520056,31.6635415 C118.520056,30.4481094 118.175615,29.3459762 117.496253,28.3877777 C117.015064,27.7091798 116.400415,27.1739555 115.669389,26.7970081" id="Fill-7"></path>
                <path d="M135.923231,29.8974063 C135.590147,30.8320669 135.115314,31.680357 134.509919,32.421373 C133.905999,33.1582424 133.170116,33.7585678 132.320491,34.2057141 C131.477704,34.648665 130.51697,34.8729211 129.465981,34.8729211 C128.445537,34.8729211 127.49587,34.6556166 126.644795,34.228008 C125.786808,33.7975699 125.037055,33.2139771 124.417839,32.493816 C123.795891,31.7708985 123.308541,30.9267794 122.969778,29.9865575 C122.628212,29.0463355 122.456088,28.0517936 122.456088,27.0349577 C122.456088,26.066905 122.62408,25.1043647 122.957285,24.1711188 C123.289137,23.2378485 123.76948,22.3895584 124.383162,21.6485424 C124.992616,20.911673 125.738213,20.3113232 126.597601,19.8641769 C127.448677,19.41986 128.413591,19.1956039 129.465981,19.1956039 C130.466998,19.1956039 131.398613,19.4115181 132.233015,19.8391268 C133.075754,20.2695405 133.817146,20.8545479 134.436362,21.5747335 C135.058285,22.2976509 135.549913,23.1417213 135.898342,24.0833823 C136.24677,25.0249702 136.424597,26.0167559 136.424597,27.0349577 C136.424597,28.0002542 136.255131,28.9641603 135.923231,29.8974063 M136.065439,20.2031222 C135.27335,19.2607782 134.304134,18.4880532 133.18476,17.9064362 C132.06193,17.3224531 130.806751,17.0263394 129.45402,17.0263394 C128.157882,17.0263394 126.935422,17.3036472 125.820566,17.8505307 C124.712114,18.3934871 123.738211,19.1379666 122.925968,20.0633097 C122.116673,20.9871649 121.472253,22.0612234 121.010734,23.2556299 C120.547282,24.4543293 120.312306,25.7257157 120.312306,27.0344699 C120.312306,28.2860258 120.533001,29.5281422 120.96835,30.7262075 C121.405921,31.9266143 122.032846,33.0017217 122.831581,33.9215766 C123.630944,34.8436025 124.599435,35.601912 125.710183,36.175553 C126.825304,36.7499258 128.075747,37.0411612 129.426786,37.0411612 C130.724326,37.0411612 131.946738,36.7638778 133.060192,36.2170187 C134.168788,35.6733306 135.142716,34.9336561 135.95508,34.0184112 C136.762635,33.1053371 137.40749,32.03523 137.871594,30.8380185 C138.333959,29.6396361 138.568403,28.3599079 138.568403,27.0344699 C138.568403,25.8175255 138.347757,24.5975323 137.912626,23.4084431 C137.477035,22.2216956 136.855523,21.1432222 136.065439,20.2031222" id="Fill-9"></path>
                <path d="M180.448861,17.0256004 L179.160794,17.0256004 C178.960301,17.0256004 178.724092,17.1629737 178.62306,17.3383003 L177.560739,19.1956698 L177.560545,19.1955966 L171.094838,30.4997488 L171.094838,30.4955047 L171.093581,30.4977487 L171.092301,30.4955047 L171.092301,30.4997488 L164.626617,19.1955966 L164.6264,19.1956698 L163.564078,17.3383003 C163.463046,17.1629737 163.226838,17.0256004 163.026345,17.0256004 L161.738278,17.0256004 C161.521908,17.0256004 161.345894,17.2035613 161.345894,17.4223049 L161.345894,36.746772 C161.345894,36.9200985 161.452218,37.0411782 161.604479,37.0411782 C161.65015,37.0411782 161.697464,37.0301776 161.744971,37.0085667 L163.168625,36.1802045 C163.381684,36.0516365 163.501951,35.8698218 163.501951,35.6629081 C163.501951,35.6629081 163.501589,21.5464807 163.501951,21.5470174 L170.12758,33.125404 C170.254975,33.3481722 170.434687,33.4619589 170.637645,33.4619589 L171.549494,33.4619589 C171.752452,33.4619589 171.932164,33.3481722 172.059559,33.125404 L178.685212,21.5470174 C178.68555,21.5464807 178.685212,35.6643472 178.685212,35.6643472 C178.685212,35.8712365 178.814468,36.0621249 179.018537,36.1816436 L180.442192,37.0085667 C180.489675,37.0301776 180.536989,37.0411782 180.58266,37.0411782 C180.734921,37.0411782 180.841245,36.9200985 180.841245,36.746772 L180.841245,17.4223049 C180.841245,17.2035613 180.66523,17.0256004 180.448861,17.0256004" id="Fill-11"></path>
                <g id="Group-15" transform="translate(0.000000, 0.015123)">
                    <path d="M33.3821861,43.8405412 L12.8853596,31.895598 C11.6332737,31.1659241 11.6332737,29.9719079 12.8853596,29.2422096 L14.3078539,28.4132132 L16.455937,29.6650619 L14.9049598,30.568916 L33.5095333,41.4131163 L33.510379,13.4185674 L14.828914,24.3056725 L18.092505,26.2076053 L22.9462439,29.0362472 L27.7305823,31.8244478 L27.7305823,23.0944846 L21.874788,26.507085 L19.7267049,25.2552364 L27.6021235,20.665645 C28.8542094,19.9359711 29.8786412,20.5329792 29.8786412,21.9923514 L29.8786412,32.9265566 C29.8786412,34.3859288 28.8542094,34.9829369 27.6021235,34.253263 L18.092505,28.7113026 L15.2571581,27.05892 L12.8745097,25.6725518 C11.622448,24.9428779 11.6209739,23.66093 12.8730357,22.9312318 L33.382017,10.9897278 C34.6341029,10.2600295 35.6585346,10.857062 35.6585588,12.3164342 L35.6587038,42.5138348 C35.6587038,43.973207 34.634272,44.5702395 33.3821861,43.8405412 M26.7576693,0.00920294022 C11.9798416,0.00920294022 2.41645463e-06,12.1015688 2.41645463e-06,27.0182836 C2.41645463e-06,41.9349496 11.9798416,54.0273399 26.7576693,54.0273399 C41.5355454,54.0273399 53.5153604,41.9349496 53.5153604,27.0182836 C53.5153604,12.1015688 41.5355454,0.00920294022 26.7576693,0.00920294022" id="Fill-13"></path>
                </g>
            </g>
        </g>
    </g>
</svg>